<mxfile host="app.diagrams.net" modified="2021-12-27T21:54:03.242Z" agent="5.0 (Windows NT 10.0; Win64; x64) AppleWebKit/537.36 (KHTML, like Gecko) Chrome/96.0.4664.110 Safari/537.36" etag="IzhZT9rrkcgi4pNnGaWS" version="15.9.6" type="github">
  <diagram id="o_-JVSorGUq8rQS-DgG7" name="Page-1">
    <mxGraphModel dx="870" dy="626" grid="1" gridSize="10" guides="1" tooltips="1" connect="1" arrows="1" fold="1" page="1" pageScale="1" pageWidth="827" pageHeight="1169" math="0" shadow="0">
      <root>
        <mxCell id="0" />
        <mxCell id="1" parent="0" />
        <mxCell id="QEYlbFbl1b5BMHYswca5-19" style="edgeStyle=orthogonalEdgeStyle;shape=flexArrow;rounded=0;sketch=1;orthogonalLoop=1;jettySize=auto;html=1;exitX=0.5;exitY=1;exitDx=0;exitDy=0;entryX=0.5;entryY=0;entryDx=0;entryDy=0;" edge="1" parent="1" source="ipaL6n43P8oaSK_bz6wS-1" target="QEYlbFbl1b5BMHYswca5-18">
          <mxGeometry relative="1" as="geometry" />
        </mxCell>
        <mxCell id="ipaL6n43P8oaSK_bz6wS-1" value="Scene loads on game startup" style="rounded=1;whiteSpace=wrap;html=1;fillColor=#d5e8d4;strokeColor=#82b366;sketch=1;fillStyle=solid;" parent="1" vertex="1">
          <mxGeometry x="100" y="40" width="120" height="60" as="geometry" />
        </mxCell>
        <mxCell id="ipaL6n43P8oaSK_bz6wS-9" value="" style="edgeStyle=orthogonalEdgeStyle;shape=flexArrow;rounded=0;sketch=1;orthogonalLoop=1;jettySize=auto;html=1;strokeColor=default;entryX=0.5;entryY=0;entryDx=0;entryDy=0;" parent="1" source="ipaL6n43P8oaSK_bz6wS-6" target="QEYlbFbl1b5BMHYswca5-6" edge="1">
          <mxGeometry relative="1" as="geometry">
            <mxPoint x="160" y="450" as="targetPoint" />
          </mxGeometry>
        </mxCell>
        <mxCell id="ipaL6n43P8oaSK_bz6wS-6" value="User is presented with menu" style="rounded=0;whiteSpace=wrap;html=1;sketch=1;fillStyle=solid;fillColor=#fff2cc;strokeColor=#d6b656;" parent="1" vertex="1">
          <mxGeometry x="100" y="330" width="120" height="60" as="geometry" />
        </mxCell>
        <mxCell id="QEYlbFbl1b5BMHYswca5-8" value="Play" style="edgeStyle=orthogonalEdgeStyle;rounded=0;orthogonalLoop=1;jettySize=auto;html=1;exitX=1;exitY=0.5;exitDx=0;exitDy=0;entryX=0;entryY=0.5;entryDx=0;entryDy=0;shape=flexArrow;sketch=1;" edge="1" parent="1" source="QEYlbFbl1b5BMHYswca5-6" target="QEYlbFbl1b5BMHYswca5-7">
          <mxGeometry relative="1" as="geometry" />
        </mxCell>
        <mxCell id="QEYlbFbl1b5BMHYswca5-11" value="Settings" style="edgeStyle=orthogonalEdgeStyle;shape=flexArrow;rounded=0;sketch=1;orthogonalLoop=1;jettySize=auto;html=1;exitX=0.75;exitY=1;exitDx=0;exitDy=0;entryX=0;entryY=0.5;entryDx=0;entryDy=0;" edge="1" parent="1" source="QEYlbFbl1b5BMHYswca5-6" target="QEYlbFbl1b5BMHYswca5-12">
          <mxGeometry relative="1" as="geometry">
            <mxPoint x="260" y="650" as="targetPoint" />
          </mxGeometry>
        </mxCell>
        <mxCell id="QEYlbFbl1b5BMHYswca5-14" value="Exit" style="edgeStyle=orthogonalEdgeStyle;shape=flexArrow;rounded=0;sketch=1;orthogonalLoop=1;jettySize=auto;html=1;exitX=0.25;exitY=1;exitDx=0;exitDy=0;entryX=0;entryY=0.5;entryDx=0;entryDy=0;" edge="1" parent="1" source="QEYlbFbl1b5BMHYswca5-6" target="QEYlbFbl1b5BMHYswca5-15">
          <mxGeometry relative="1" as="geometry">
            <mxPoint x="190" y="710" as="targetPoint" />
          </mxGeometry>
        </mxCell>
        <mxCell id="QEYlbFbl1b5BMHYswca5-6" value="&lt;div style=&quot;text-align: left&quot;&gt;&lt;span&gt;- Play&lt;/span&gt;&lt;br&gt;&lt;span&gt;- Settings&lt;/span&gt;&lt;br&gt;&lt;span&gt;- Exit&lt;/span&gt;&lt;br&gt;&lt;/div&gt;" style="shape=step;perimeter=stepPerimeter;whiteSpace=wrap;html=1;fixedSize=1;sketch=1;fillStyle=solid;fillColor=#ffe6cc;strokeColor=#d79b00;" vertex="1" parent="1">
          <mxGeometry x="100" y="450" width="120" height="80" as="geometry" />
        </mxCell>
        <mxCell id="QEYlbFbl1b5BMHYswca5-10" style="edgeStyle=orthogonalEdgeStyle;shape=flexArrow;rounded=0;sketch=1;orthogonalLoop=1;jettySize=auto;html=1;exitX=1;exitY=0.5;exitDx=0;exitDy=0;entryX=0.5;entryY=0;entryDx=0;entryDy=0;" edge="1" parent="1" source="QEYlbFbl1b5BMHYswca5-7" target="QEYlbFbl1b5BMHYswca5-9">
          <mxGeometry relative="1" as="geometry" />
        </mxCell>
        <mxCell id="QEYlbFbl1b5BMHYswca5-7" value="Play scene loads" style="shape=hexagon;perimeter=hexagonPerimeter2;whiteSpace=wrap;html=1;fixedSize=1;sketch=1;fillStyle=solid;fillColor=#e1d5e7;strokeColor=#9673a6;" vertex="1" parent="1">
          <mxGeometry x="294" y="450" width="120" height="80" as="geometry" />
        </mxCell>
        <mxCell id="QEYlbFbl1b5BMHYswca5-9" value="Current scene is destroyed" style="rounded=1;whiteSpace=wrap;html=1;fillColor=#f8cecc;strokeColor=#b85450;sketch=1;fillStyle=solid;" vertex="1" parent="1">
          <mxGeometry x="510" y="580" width="120" height="60" as="geometry" />
        </mxCell>
        <mxCell id="QEYlbFbl1b5BMHYswca5-13" style="edgeStyle=orthogonalEdgeStyle;shape=flexArrow;rounded=0;sketch=1;orthogonalLoop=1;jettySize=auto;html=1;exitX=1;exitY=0.5;exitDx=0;exitDy=0;entryX=0;entryY=0.5;entryDx=0;entryDy=0;" edge="1" parent="1" source="QEYlbFbl1b5BMHYswca5-12" target="QEYlbFbl1b5BMHYswca5-9">
          <mxGeometry relative="1" as="geometry" />
        </mxCell>
        <mxCell id="QEYlbFbl1b5BMHYswca5-12" value="Settings scene loads" style="shape=hexagon;perimeter=hexagonPerimeter2;whiteSpace=wrap;html=1;fixedSize=1;sketch=1;fillStyle=solid;fillColor=#e1d5e7;strokeColor=#9673a6;" vertex="1" parent="1">
          <mxGeometry x="294" y="570" width="120" height="80" as="geometry" />
        </mxCell>
        <mxCell id="QEYlbFbl1b5BMHYswca5-17" style="edgeStyle=orthogonalEdgeStyle;shape=flexArrow;rounded=0;sketch=1;orthogonalLoop=1;jettySize=auto;html=1;exitX=1;exitY=0.5;exitDx=0;exitDy=0;entryX=0.5;entryY=1;entryDx=0;entryDy=0;" edge="1" parent="1" source="QEYlbFbl1b5BMHYswca5-15" target="QEYlbFbl1b5BMHYswca5-9">
          <mxGeometry relative="1" as="geometry" />
        </mxCell>
        <mxCell id="QEYlbFbl1b5BMHYswca5-15" value="Application is closed" style="shape=hexagon;perimeter=hexagonPerimeter2;whiteSpace=wrap;html=1;fixedSize=1;sketch=1;fillStyle=solid;fillColor=#e1d5e7;strokeColor=#9673a6;" vertex="1" parent="1">
          <mxGeometry x="294" y="690" width="120" height="80" as="geometry" />
        </mxCell>
        <mxCell id="QEYlbFbl1b5BMHYswca5-20" value="No" style="edgeStyle=orthogonalEdgeStyle;shape=flexArrow;rounded=0;sketch=1;orthogonalLoop=1;jettySize=auto;html=1;exitX=0.5;exitY=1;exitDx=0;exitDy=0;entryX=0.5;entryY=0;entryDx=0;entryDy=0;" edge="1" parent="1" source="QEYlbFbl1b5BMHYswca5-18" target="ipaL6n43P8oaSK_bz6wS-6">
          <mxGeometry relative="1" as="geometry" />
        </mxCell>
        <mxCell id="QEYlbFbl1b5BMHYswca5-21" value="Yes" style="edgeStyle=orthogonalEdgeStyle;shape=flexArrow;rounded=0;sketch=1;orthogonalLoop=1;jettySize=auto;html=1;exitX=1;exitY=0.5;exitDx=0;exitDy=0;" edge="1" parent="1" source="QEYlbFbl1b5BMHYswca5-18">
          <mxGeometry relative="1" as="geometry">
            <mxPoint x="280" y="220" as="targetPoint" />
          </mxGeometry>
        </mxCell>
        <mxCell id="QEYlbFbl1b5BMHYswca5-18" value="Maximum time reached?" style="rhombus;whiteSpace=wrap;html=1;fillColor=#dae8fc;strokeColor=#6c8ebf;rounded=0;sketch=1;fillStyle=solid;" vertex="1" parent="1">
          <mxGeometry x="105" y="170" width="110" height="100" as="geometry" />
        </mxCell>
        <mxCell id="QEYlbFbl1b5BMHYswca5-23" style="edgeStyle=orthogonalEdgeStyle;shape=flexArrow;rounded=0;sketch=1;orthogonalLoop=1;jettySize=auto;html=1;exitX=1;exitY=0.5;exitDx=0;exitDy=0;entryX=1;entryY=0.5;entryDx=0;entryDy=0;" edge="1" parent="1" source="QEYlbFbl1b5BMHYswca5-22" target="QEYlbFbl1b5BMHYswca5-9">
          <mxGeometry relative="1" as="geometry">
            <Array as="points">
              <mxPoint x="690" y="220" />
              <mxPoint x="690" y="610" />
            </Array>
          </mxGeometry>
        </mxCell>
        <mxCell id="QEYlbFbl1b5BMHYswca5-22" value="Rest scene loads" style="shape=hexagon;perimeter=hexagonPerimeter2;whiteSpace=wrap;html=1;fixedSize=1;sketch=1;fillStyle=solid;fillColor=#e1d5e7;strokeColor=#9673a6;" vertex="1" parent="1">
          <mxGeometry x="280" y="180" width="120" height="80" as="geometry" />
        </mxCell>
      </root>
    </mxGraphModel>
  </diagram>
</mxfile>
